<svg version="1.1" id="Layer_1" xmlns="http://www.w3.org/2000/svg" xmlns:xlink="http://www.w3.org/1999/xlink" x="0px" y="0px"
	 width="100%" viewBox="0 0 500 500" enable-background="new 0 0 500 500" xml:space="preserve">
<path fill="#FFFFFF" opacity="1.000000" stroke="none" 
	d="
M268.000000,501.000000 
	C178.666687,501.000000 89.833374,501.000000 1.000032,501.000000 
	C1.000000,417.666718 1.000000,334.333405 1.000000,251.000122 
	C1.000000,167.666809 1.000000,84.333496 1.000000,1.000091 
	C84.333252,1.000000 167.666504,1.000000 250.999756,1.000000 
	C334.333069,1.000000 417.666382,1.000000 500.999756,1.000000 
	C500.999847,167.666519 500.999847,334.333038 500.999939,500.999786 
	C423.500000,501.000000 346.000000,501.000000 268.000000,501.000000 
M407.496643,430.837799 
	C410.662079,430.837799 413.827515,430.837830 416.992950,430.837799 
	C428.130920,430.837708 430.507721,428.496735 430.508209,417.491882 
	C430.510529,366.845093 430.509247,316.198303 430.509247,265.551514 
	C430.509247,263.795929 430.509247,262.040344 430.509247,260.001312 
	C446.032928,260.001312 461.007050,259.899231 475.978271,260.063354 
	C480.485321,260.112762 484.442352,259.419952 486.356842,254.950165 
	C488.401825,250.175751 486.353088,246.514450 482.820160,243.019363 
	C466.002625,226.381943 449.401917,209.525375 432.591827,192.880356 
	C430.134399,190.447067 429.193848,188.012985 429.215363,184.582947 
	C429.357483,161.926056 429.301300,139.267853 429.282227,116.610100 
	C429.274536,107.450943 426.610199,104.846603 417.325073,104.834267 
	C406.829193,104.820320 396.333252,104.811287 385.837433,104.836739 
	C377.005859,104.858154 374.200409,107.685493 374.182251,116.506523 
	C374.170868,122.030792 374.180145,127.555115 374.180145,133.079407 
	C373.751556,133.203903 373.322937,133.328400 372.894348,133.452881 
	C354.792023,115.321747 336.689697,97.190613 318.309204,78.780869 
	C302.727264,114.362373 287.201294,149.816071 271.472748,185.732285 
	C288.794861,185.148438 305.325409,184.591263 322.685089,184.006134 
	C299.668823,225.737823 277.073151,266.697357 254.486725,307.661957 
	C231.937607,348.558929 209.397766,389.461060 186.591019,430.837799 
	C260.557312,430.837799 333.527588,430.837799 407.496643,430.837799 
M257.110504,17.134401 
	C251.515488,13.618730 248.558777,13.934703 243.960388,18.538338 
	C185.893845,76.671066 127.826767,134.803268 69.760880,192.936661 
	C52.800503,209.916763 35.837170,226.893906 18.890816,243.887985 
	C15.886350,246.900894 14.016307,250.315323 15.993356,254.651489 
	C17.886856,258.804443 21.269190,260.111938 25.723166,260.057373 
	C38.721058,259.898132 51.722164,260.000824 64.722008,260.000824 
	C67.140099,260.000824 69.558189,260.000793 72.030396,260.000793 
	C72.030396,313.711731 72.023209,366.709534 72.038040,419.707367 
	C72.040298,427.780701 75.139267,430.832611 83.214684,430.834412 
	C113.380989,430.841095 143.547577,430.777008 173.713226,430.918396 
	C177.212662,430.934784 178.871628,429.962616 180.232498,426.604462 
	C205.419556,364.452026 230.761154,302.362183 256.059875,240.254929 
	C256.592834,238.946503 257.004425,237.588623 257.409149,236.434769 
	C234.803726,236.434769 212.621338,236.434769 190.141922,236.434769 
	C229.663391,180.322403 269.007629,124.461639 308.453674,68.456383 
	C291.336334,51.333881 274.496613,34.489109 257.110504,17.134401 
z"/>
<path fill="#010101" opacity="1.000000" stroke="none" 
	d="
M406.997253,430.837799 
	C333.527588,430.837799 260.557312,430.837799 186.591019,430.837799 
	C209.397766,389.461060 231.937607,348.558929 254.486725,307.661957 
	C277.073151,266.697357 299.668823,225.737823 322.685089,184.006134 
	C305.325409,184.591263 288.794861,185.148438 271.472748,185.732285 
	C287.201294,149.816071 302.727264,114.362373 318.309204,78.780869 
	C336.689697,97.190613 354.792023,115.321747 372.894348,133.452881 
	C373.322937,133.328400 373.751556,133.203903 374.180145,133.079407 
	C374.180145,127.555115 374.170868,122.030792 374.182251,116.506523 
	C374.200409,107.685493 377.005859,104.858154 385.837433,104.836739 
	C396.333252,104.811287 406.829193,104.820320 417.325073,104.834267 
	C426.610199,104.846603 429.274536,107.450943 429.282227,116.610100 
	C429.301300,139.267853 429.357483,161.926056 429.215363,184.582947 
	C429.193848,188.012985 430.134399,190.447067 432.591827,192.880356 
	C449.401917,209.525375 466.002625,226.381943 482.820160,243.019363 
	C486.353088,246.514450 488.401825,250.175751 486.356842,254.950165 
	C484.442352,259.419952 480.485321,260.112762 475.978271,260.063354 
	C461.007050,259.899231 446.032928,260.001312 430.509247,260.001312 
	C430.509247,262.040344 430.509247,263.795929 430.509247,265.551514 
	C430.509247,316.198303 430.510529,366.845093 430.508209,417.491882 
	C430.507721,428.496735 428.130920,430.837708 416.992950,430.837799 
	C413.827515,430.837830 410.662079,430.837799 406.997253,430.837799 
z"/>
<path fill="#010101" opacity="1.000000" stroke="none" 
	d="
M257.383728,17.389368 
	C274.496613,34.489109 291.336334,51.333881 308.453674,68.456383 
	C269.007629,124.461639 229.663391,180.322403 190.141922,236.434769 
	C212.621338,236.434769 234.803726,236.434769 257.409149,236.434769 
	C257.004425,237.588623 256.592834,238.946503 256.059875,240.254929 
	C230.761154,302.362183 205.419556,364.452026 180.232498,426.604462 
	C178.871628,429.962616 177.212662,430.934784 173.713226,430.918396 
	C143.547577,430.777008 113.380989,430.841095 83.214684,430.834412 
	C75.139267,430.832611 72.040298,427.780701 72.038040,419.707367 
	C72.023209,366.709534 72.030396,313.711731 72.030396,260.000793 
	C69.558189,260.000793 67.140099,260.000824 64.722008,260.000824 
	C51.722164,260.000824 38.721058,259.898132 25.723166,260.057373 
	C21.269190,260.111938 17.886856,258.804443 15.993356,254.651489 
	C14.016307,250.315323 15.886350,246.900894 18.890816,243.887985 
	C35.837170,226.893906 52.800503,209.916763 69.760880,192.936661 
	C127.826767,134.803268 185.893845,76.671066 243.960388,18.538338 
	C248.558777,13.934703 251.515488,13.618730 257.383728,17.389368 
z"/>
</svg>