<svg version="1.1" id="Layer_1" xmlns="http://www.w3.org/2000/svg" xmlns:xlink="http://www.w3.org/1999/xlink" x="0px" y="0px"
	 width="100%" viewBox="0 0 1024 1024" enable-background="new 0 0 1024 1024" xml:space="preserve">
<path fill="#FEFFFF" opacity="1.000000" stroke="none" 
	d="
M947.000000,1025.000000 
	C631.333313,1025.000000 316.166656,1025.000000 1.000000,1025.000000 
	C1.000000,683.666687 1.000000,342.333344 1.000000,1.000000 
	C342.333344,1.000000 683.666687,1.000000 1025.000000,1.000000 
	C1025.000000,342.333344 1025.000000,683.666687 1025.000000,1025.000000 
	C999.166687,1025.000000 973.333313,1025.000000 947.000000,1025.000000 
M427.162354,565.051636 
	C415.697845,565.050293 404.229523,565.222229 392.770630,564.967590 
	C387.747650,564.855896 386.979004,567.328430 387.415192,571.549866 
	C396.502136,572.021484 405.392365,572.640625 414.292755,572.875977 
	C418.519745,572.987793 422.766083,572.367310 427.938202,572.060364 
	C433.302643,572.017822 438.667114,571.975342 444.962860,571.998962 
	C467.652740,572.019531 490.342590,572.040100 513.960571,572.150146 
	C523.968506,572.125427 533.976440,572.100647 544.466797,572.563538 
	C545.974731,574.564636 547.943481,576.368225 548.901794,578.604858 
	C551.477966,584.617126 553.622437,590.814270 555.938293,596.937988 
	C556.656982,597.011536 557.375610,597.085022 558.094238,597.158569 
	C559.355408,593.674500 560.842041,590.253235 561.832153,586.693726 
	C564.089661,578.577209 566.103699,570.393005 568.529724,561.028076 
	C574.485596,573.314514 576.169922,574.407471 584.892334,572.064148 
	C590.437988,572.064148 595.983643,572.064148 601.655212,572.064148 
	C601.655212,569.437866 601.655212,567.419434 601.655212,565.084473 
	C595.537537,565.084473 589.799622,565.084473 583.246033,565.006714 
	C580.347778,565.352478 578.804993,564.206665 577.834595,561.286499 
	C576.066772,555.966675 573.876343,550.776794 571.632874,545.632751 
	C571.042847,544.279968 569.611755,543.294006 568.566956,542.139587 
	C567.687561,543.325500 566.415222,544.386353 565.991699,545.717346 
	C562.953735,555.264832 560.088257,564.867310 556.771606,575.753296 
	C553.939209,569.572388 553.175293,562.551270 543.976257,565.109497 
	C533.608582,565.187256 523.240845,565.265076 511.961639,565.218140 
	C489.022949,565.279480 466.084290,565.340820 442.212280,565.147827 
	C437.510376,565.154297 432.808502,565.160706 427.162354,565.051636 
M328.589752,572.566223 
	C330.396088,572.692871 332.208282,572.980103 334.007660,572.914734 
	C338.622650,572.747131 343.229797,572.256287 347.844025,572.196594 
	C357.028931,572.077637 366.216492,572.161377 375.585022,572.161377 
	C375.749146,568.080017 376.050354,564.992188 371.208038,565.028442 
	C356.434326,565.138916 341.659760,565.139099 325.971313,565.118225 
	C312.278290,565.171509 298.585266,565.224731 283.974731,565.178955 
	C256.855286,565.184570 229.735794,565.179993 202.616348,565.203918 
	C196.829636,565.209045 196.532898,565.648987 197.863556,572.014587 
	C226.851212,572.014587 255.929337,572.014587 285.938721,572.119629 
	C299.959137,572.078735 313.979584,572.037842 328.589752,572.566223 
M182.236786,561.730225 
	C183.530319,560.300598 184.823868,558.870911 186.169922,557.383240 
	C182.632523,553.179565 179.367401,549.299438 176.078644,545.391235 
	C167.401367,554.039856 159.258698,555.054016 154.288849,548.445801 
	C175.634003,539.964172 185.988174,519.624512 180.171906,497.601410 
	C175.054703,478.225342 156.613235,466.037903 134.116013,467.164429 
	C111.977417,468.273041 94.885719,483.713654 93.115883,504.203857 
	C91.176323,526.658997 103.880096,544.541504 125.824661,549.346008 
	C130.607224,550.393066 133.611115,552.553711 136.606125,556.176147 
	C148.973236,571.134094 167.430191,573.449280 182.236786,561.730225 
M845.493225,543.003845 
	C849.388062,538.738037 854.195007,534.996826 857.007019,530.108154 
	C865.511841,515.322388 865.374146,500.073242 855.888489,485.776154 
	C845.846375,470.640442 830.687378,465.603546 813.303894,467.470215 
	C796.311401,469.294983 783.387268,477.761414 777.316650,494.250244 
	C771.478516,510.107330 774.616028,524.784729 785.730103,537.491394 
	C799.187683,552.877380 825.759521,555.419189 845.493225,543.003845 
M766.046936,524.488281 
	C775.791626,497.307495 760.326416,471.947083 731.269531,467.458923 
	C699.074524,462.486084 673.689941,490.639954 682.598328,521.439758 
	C687.367432,537.928406 702.214966,549.520935 720.300964,550.876831 
	C741.029663,552.430847 757.755310,542.996521 766.046936,524.488281 
M604.570740,541.395203 
	C604.570740,543.846252 604.570740,546.297363 604.570740,548.627136 
	C612.316528,548.627136 619.523376,548.627136 627.297852,548.627136 
	C627.297852,540.916382 627.297852,533.681946 627.297852,526.737183 
	C635.397522,524.839172 640.961426,526.634888 644.092590,534.445862 
	C645.805054,538.717712 648.617432,542.570129 651.129761,546.485962 
	C651.838135,547.590027 653.217468,548.964233 654.325867,548.997620 
	C661.704834,549.220520 669.093750,549.113220 677.340088,549.113220 
	C671.384338,539.764465 665.976135,531.275146 660.580505,522.805603 
	C661.300171,522.177307 661.638794,521.806152 662.045349,521.537903 
	C672.388916,514.712219 677.020935,503.726715 674.762634,491.344849 
	C672.709961,480.090576 665.026306,472.640656 652.485901,470.045746 
	C649.252625,469.376678 645.901428,469.045807 642.597534,468.993378 
	C632.781006,468.837616 622.961121,468.896606 613.142517,468.874878 
	C610.391968,468.868774 607.641357,468.873901 604.575806,468.873901 
	C604.575806,493.205383 604.575806,516.814697 604.570740,541.395203 
M366.208435,487.500610 
	C366.208435,507.928101 366.208435,528.355591 366.208435,548.741150 
	C374.047302,548.741150 381.105957,548.741150 388.374908,548.741150 
	C389.352020,537.942322 384.967255,525.624573 398.391937,519.241943 
	C404.725037,527.962585 411.244446,536.985596 417.834106,545.956909 
	C418.675507,547.102356 419.857666,548.814209 420.925171,548.846802 
	C428.939514,549.091187 436.964691,548.979858 445.878265,548.979858 
	C437.445923,536.905823 429.626648,525.770569 421.880249,514.584778 
	C419.139893,510.627655 414.226776,506.330444 414.572632,502.582153 
	C414.943512,498.562653 420.257904,494.935272 423.555756,491.263275 
	C430.126862,483.946655 436.794434,476.716675 443.994904,468.823029 
	C436.304108,468.823029 429.654053,468.571198 423.041565,468.959381 
	C420.722626,469.095551 417.927979,470.247925 416.322418,471.887756 
	C407.938354,480.450653 399.874634,489.326874 391.675323,498.071442 
	C390.846313,498.955566 389.855927,499.688416 388.135681,501.197418 
	C388.135681,489.834534 388.135681,479.578613 388.135681,469.220428 
	C380.637756,469.220428 373.596741,469.220428 366.205017,469.220428 
	C366.205017,475.218262 366.205017,480.859863 366.208435,487.500610 
M513.843628,475.565643 
	C513.843628,473.453461 513.843628,471.341278 513.843628,469.207947 
	C492.373993,469.207947 471.488251,469.207947 450.639313,469.207947 
	C450.639313,495.954926 450.639313,522.353088 450.639313,548.899902 
	C472.319702,548.899902 493.605042,548.899902 515.120911,548.899902 
	C515.120911,543.122192 515.120911,537.539124 515.120911,531.386108 
	C500.954285,531.386108 487.081879,531.386108 473.090485,531.386108 
	C473.090485,526.387207 473.090485,521.961304 473.090485,517.034729 
	C485.197327,517.034729 497.097260,517.034729 508.991241,517.034729 
	C508.991241,511.134460 508.991241,505.747864 508.991241,499.869659 
	C496.666901,499.869659 484.766388,499.869659 472.927795,499.869659 
	C472.927795,495.248535 472.927795,491.132935 472.927795,486.456787 
	C486.559235,486.456787 499.973480,486.456787 513.841797,486.456787 
	C513.841797,482.772644 513.841797,479.651428 513.843628,475.565643 
M213.590424,474.686676 
	C213.590424,472.888519 213.590424,471.090363 213.590424,469.196198 
	C205.809448,469.196198 198.584106,469.196198 191.254089,469.196198 
	C191.254089,485.650909 190.462158,501.830292 191.456223,517.899170 
	C192.675995,537.616455 203.358810,548.428223 222.141342,550.619934 
	C227.033447,551.190796 232.160355,550.904785 237.047272,550.153198 
	C253.211426,547.667236 263.364990,537.703308 265.014191,521.520996 
	C266.175201,510.129120 265.756165,498.572510 265.955994,487.087952 
	C266.059357,481.147125 265.974182,475.203003 265.974182,469.134399 
	C258.255463,469.134399 251.170181,469.134399 243.700027,469.134399 
	C243.700027,479.532135 243.771622,489.680450 243.673813,499.827118 
	C243.612839,506.151794 243.642578,512.509033 243.007797,518.788635 
	C242.180725,526.970276 236.992462,531.627014 229.272797,531.948792 
	C221.429153,532.275635 216.115265,528.223389 214.443253,520.063354 
	C213.681290,516.344604 213.558304,512.451233 213.529633,508.634186 
	C213.447052,497.638245 213.560059,486.640808 213.590424,474.686676 
M279.533936,549.082336 
	C292.413055,549.082336 292.413086,549.082336 297.142120,537.155518 
	C297.203461,537.000854 297.198944,536.770264 297.308533,536.692383 
	C298.603058,535.772278 299.877838,534.162476 301.225952,534.094910 
	C306.876892,533.811829 312.655457,534.686401 318.193939,533.852539 
	C328.304565,532.330444 334.608063,535.422424 336.642792,545.908325 
	C336.877045,547.115540 338.618378,548.887390 339.718292,548.930359 
	C346.764435,549.205505 353.826599,549.070740 361.489838,549.070740 
	C360.766235,547.413452 360.382324,546.529114 359.994507,545.646545 
	C350.222656,523.407654 340.060120,501.328125 330.892426,478.842926 
	C327.731995,471.091492 323.927063,467.187042 315.424103,468.790771 
	C313.177032,469.214569 310.749176,468.991180 308.444336,468.722137 
	C305.275024,468.352264 303.860687,469.651398 302.618256,472.584076 
	C294.895294,490.813629 286.916016,508.934601 279.023682,527.092407 
	C275.928345,534.213867 272.838013,541.337402 269.475159,549.082275 
	C272.979584,549.082275 275.768646,549.082275 279.533936,549.082336 
M525.640015,492.107544 
	C525.640015,511.010345 525.640015,529.913147 525.640015,548.799744 
	C533.525940,548.799744 540.453003,548.799744 547.971008,548.799744 
	C547.971008,541.482239 547.971008,534.428711 547.971008,527.071472 
	C554.033691,527.071472 559.534668,527.432312 564.971130,526.993469 
	C575.126465,526.173828 584.902161,524.088684 591.024109,514.665588 
	C602.661255,496.753479 593.500671,474.408966 572.648865,469.935547 
	C569.420715,469.242981 566.054199,468.949371 562.747070,468.915100 
	C551.751343,468.801025 540.753540,468.877411 529.756653,468.916382 
	C528.504089,468.920807 527.252319,469.150909 525.625427,469.313904 
	C525.625427,476.855988 525.625427,484.012451 525.640015,492.107544 
M903.523376,503.528229 
	C900.773438,503.528229 898.023499,503.528229 895.266602,503.528229 
	C895.266602,497.480255 895.266602,492.242798 895.266602,486.466492 
	C908.556458,486.466492 921.492615,486.466492 934.470581,486.466492 
	C934.470581,480.334351 934.470581,474.761200 934.470581,469.117371 
	C913.858704,469.117371 893.606689,469.117371 873.137329,469.117371 
	C873.137329,495.805389 873.137329,522.199341 873.137329,548.817749 
	C880.511902,548.817749 887.574158,548.817749 895.154175,548.817749 
	C895.154175,539.478027 895.154175,530.415894 895.154175,520.857727 
	C907.245361,520.857727 918.827087,520.857727 930.614258,520.857727 
	C930.614258,514.915100 930.614258,509.493744 930.614258,503.531769 
	C921.764832,503.531769 913.142639,503.531769 903.523376,503.528229 
z"/>
<path fill="#354346" opacity="1.000000" stroke="none" 
	d="
M181.969406,561.965454 
	C167.430191,573.449280 148.973236,571.134094 136.606125,556.176147 
	C133.611115,552.553711 130.607224,550.393066 125.824661,549.346008 
	C103.880096,544.541504 91.176323,526.658997 93.115883,504.203857 
	C94.885719,483.713654 111.977417,468.273041 134.116013,467.164429 
	C156.613235,466.037903 175.054703,478.225342 180.171906,497.601410 
	C185.988174,519.624512 175.634003,539.964172 154.288849,548.445801 
	C159.258698,555.054016 167.401367,554.039856 176.078644,545.391235 
	C179.367401,549.299438 182.632523,553.179565 186.169922,557.383240 
	C184.823868,558.870911 183.530319,560.300598 181.969406,561.965454 
M121.838387,492.355621 
	C120.911415,493.530396 119.813080,494.608368 119.085472,495.895813 
	C114.570351,503.885071 114.407303,512.144043 118.416512,520.276306 
	C122.019150,527.583801 128.244446,531.454407 136.371780,531.900146 
	C145.976181,532.426819 154.311493,526.560730 157.363968,517.406555 
	C160.816376,507.053131 157.580872,495.811218 149.489609,490.046753 
	C141.147736,484.103790 131.257980,484.770264 121.838387,492.355621 
z"/>
<path fill="#F7822E" opacity="1.000000" stroke="none" 
	d="
M845.194580,543.203918 
	C825.759521,555.419189 799.187683,552.877380 785.730103,537.491394 
	C774.616028,524.784729 771.478516,510.107330 777.316650,494.250244 
	C783.387268,477.761414 796.311401,469.294983 813.303894,467.470215 
	C830.687378,465.603546 845.846375,470.640442 855.888489,485.776154 
	C865.374146,500.073242 865.511841,515.322388 857.007019,530.108154 
	C854.195007,534.996826 849.388062,538.738037 845.194580,543.203918 
M820.241760,486.068542 
	C804.660950,486.134338 794.674438,499.000214 798.108215,514.583740 
	C800.340210,524.713135 809.979492,532.397705 819.750916,531.837524 
	C830.799683,531.204102 838.997009,523.246704 840.068481,512.114685 
	C841.408936,498.187683 834.859680,489.220245 820.241760,486.068542 
z"/>
<path fill="#F7822E" opacity="1.000000" stroke="none" 
	d="
M765.918823,524.853027 
	C757.755310,542.996521 741.029663,552.430847 720.300964,550.876831 
	C702.214966,549.520935 687.367432,537.928406 682.598328,521.439758 
	C673.689941,490.639954 699.074524,462.486084 731.269531,467.458923 
	C760.326416,471.947083 775.791626,497.307495 765.918823,524.853027 
M709.389648,492.930634 
	C708.196716,494.728790 706.794312,496.423279 705.844727,498.341888 
	C699.481018,511.198975 706.160583,527.500305 719.125671,530.941589 
	C729.267883,533.633606 739.116821,529.393066 743.631958,520.390198 
	C748.782532,510.120239 746.131531,496.891754 737.630737,490.444519 
	C729.011169,483.907196 718.517029,484.650085 709.389648,492.930634 
z"/>
<path fill="#F7812D" opacity="1.000000" stroke="none" 
	d="
M604.573242,540.909607 
	C604.575806,516.814697 604.575806,493.205383 604.575806,468.873901 
	C607.641357,468.873901 610.391968,468.868774 613.142517,468.874878 
	C622.961121,468.896606 632.781006,468.837616 642.597534,468.993378 
	C645.901428,469.045807 649.252625,469.376678 652.485901,470.045746 
	C665.026306,472.640656 672.709961,480.090576 674.762634,491.344849 
	C677.020935,503.726715 672.388916,514.712219 662.045349,521.537903 
	C661.638794,521.806152 661.300171,522.177307 660.580505,522.805603 
	C665.976135,531.275146 671.384338,539.764465 677.340088,549.113220 
	C669.093750,549.113220 661.704834,549.220520 654.325867,548.997620 
	C653.217468,548.964233 651.838135,547.590027 651.129761,546.485962 
	C648.617432,542.570129 645.805054,538.717712 644.092590,534.445862 
	C640.961426,526.634888 635.397522,524.839172 627.297852,526.737183 
	C627.297852,533.681946 627.297852,540.916382 627.297852,548.627136 
	C619.523376,548.627136 612.316528,548.627136 604.570740,548.627136 
	C604.570740,546.297363 604.570740,543.846252 604.573242,540.909607 
M648.462708,488.811676 
	C641.389099,487.936188 634.315491,487.060699 627.151550,486.174011 
	C627.151550,494.696808 627.151550,501.751007 627.151550,509.073761 
	C632.132690,509.073761 636.759888,509.171997 641.381042,509.045929 
	C645.954590,508.921204 650.036072,507.539948 651.839050,502.861389 
	C653.772705,497.843811 653.470215,493.077911 648.462708,488.811676 
z"/>
<path fill="#354346" opacity="1.000000" stroke="none" 
	d="
M366.206726,487.001038 
	C366.205017,480.859863 366.205017,475.218262 366.205017,469.220428 
	C373.596741,469.220428 380.637756,469.220428 388.135681,469.220428 
	C388.135681,479.578613 388.135681,489.834534 388.135681,501.197418 
	C389.855927,499.688416 390.846313,498.955566 391.675323,498.071442 
	C399.874634,489.326874 407.938354,480.450653 416.322418,471.887756 
	C417.927979,470.247925 420.722626,469.095551 423.041565,468.959381 
	C429.654053,468.571198 436.304108,468.823029 443.994904,468.823029 
	C436.794434,476.716675 430.126862,483.946655 423.555756,491.263275 
	C420.257904,494.935272 414.943512,498.562653 414.572632,502.582153 
	C414.226776,506.330444 419.139893,510.627655 421.880249,514.584778 
	C429.626648,525.770569 437.445923,536.905823 445.878265,548.979858 
	C436.964691,548.979858 428.939514,549.091187 420.925171,548.846802 
	C419.857666,548.814209 418.675507,547.102356 417.834106,545.956909 
	C411.244446,536.985596 404.725037,527.962585 398.391937,519.241943 
	C384.967255,525.624573 389.352020,537.942322 388.374908,548.741150 
	C381.105957,548.741150 374.047302,548.741150 366.208435,548.741150 
	C366.208435,528.355591 366.208435,507.928101 366.206726,487.001038 
z"/>
<path fill="#354346" opacity="1.000000" stroke="none" 
	d="
M513.842712,476.047913 
	C513.841797,479.651428 513.841797,482.772644 513.841797,486.456787 
	C499.973480,486.456787 486.559235,486.456787 472.927795,486.456787 
	C472.927795,491.132935 472.927795,495.248535 472.927795,499.869659 
	C484.766388,499.869659 496.666901,499.869659 508.991241,499.869659 
	C508.991241,505.747864 508.991241,511.134460 508.991241,517.034729 
	C497.097260,517.034729 485.197327,517.034729 473.090485,517.034729 
	C473.090485,521.961304 473.090485,526.387207 473.090485,531.386108 
	C487.081879,531.386108 500.954285,531.386108 515.120911,531.386108 
	C515.120911,537.539124 515.120911,543.122192 515.120911,548.899902 
	C493.605042,548.899902 472.319702,548.899902 450.639313,548.899902 
	C450.639313,522.353088 450.639313,495.954926 450.639313,469.207947 
	C471.488251,469.207947 492.373993,469.207947 513.843628,469.207947 
	C513.843628,471.341278 513.843628,473.453461 513.842712,476.047913 
z"/>
<path fill="#354346" opacity="1.000000" stroke="none" 
	d="
M213.593323,475.165344 
	C213.560059,486.640808 213.447052,497.638245 213.529633,508.634186 
	C213.558304,512.451233 213.681290,516.344604 214.443253,520.063354 
	C216.115265,528.223389 221.429153,532.275635 229.272797,531.948792 
	C236.992462,531.627014 242.180725,526.970276 243.007797,518.788635 
	C243.642578,512.509033 243.612839,506.151794 243.673813,499.827118 
	C243.771622,489.680450 243.700027,479.532135 243.700027,469.134399 
	C251.170181,469.134399 258.255463,469.134399 265.974182,469.134399 
	C265.974182,475.203003 266.059357,481.147125 265.955994,487.087952 
	C265.756165,498.572510 266.175201,510.129120 265.014191,521.520996 
	C263.364990,537.703308 253.211426,547.667236 237.047272,550.153198 
	C232.160355,550.904785 227.033447,551.190796 222.141342,550.619934 
	C203.358810,548.428223 192.675995,537.616455 191.456223,517.899170 
	C190.462158,501.830292 191.254089,485.650909 191.254089,469.196198 
	C198.584106,469.196198 205.809448,469.196198 213.590424,469.196198 
	C213.590424,471.090363 213.590424,472.888519 213.593323,475.165344 
z"/>
<path fill="#354346" opacity="1.000000" stroke="none" 
	d="
M279.045837,549.082275 
	C275.768646,549.082275 272.979584,549.082275 269.475159,549.082275 
	C272.838013,541.337402 275.928345,534.213867 279.023682,527.092407 
	C286.916016,508.934601 294.895294,490.813629 302.618256,472.584076 
	C303.860687,469.651398 305.275024,468.352264 308.444336,468.722137 
	C310.749176,468.991180 313.177032,469.214569 315.424103,468.790771 
	C323.927063,467.187042 327.731995,471.091492 330.892426,478.842926 
	C340.060120,501.328125 350.222656,523.407654 359.994507,545.646545 
	C360.382324,546.529114 360.766235,547.413452 361.489838,549.070740 
	C353.826599,549.070740 346.764435,549.205505 339.718292,548.930359 
	C338.618378,548.887390 336.877045,547.115540 336.642792,545.908325 
	C334.608063,535.422424 328.304565,532.330444 318.193939,533.852539 
	C312.655457,534.686401 306.876892,533.811829 301.225952,534.094910 
	C299.877838,534.162476 298.603058,535.772278 297.308533,536.692383 
	C297.198944,536.770264 297.203461,537.000854 297.142120,537.155518 
	C292.413086,549.082336 292.413055,549.082336 279.045837,549.082275 
M314.532166,516.893250 
	C317.824127,516.893250 321.116089,516.893250 324.945160,516.893250 
	C321.639465,508.800690 318.501923,501.119659 314.970337,492.474091 
	C311.666412,501.275665 308.803680,508.901825 305.803802,516.893433 
	C308.936279,516.893433 311.258728,516.893433 314.532166,516.893250 
z"/>
<path fill="#F7812D" opacity="1.000000" stroke="none" 
	d="
M525.632690,491.638245 
	C525.625427,484.012451 525.625427,476.855988 525.625427,469.313904 
	C527.252319,469.150909 528.504089,468.920807 529.756653,468.916382 
	C540.753540,468.877411 551.751343,468.801025 562.747070,468.915100 
	C566.054199,468.949371 569.420715,469.242981 572.648865,469.935547 
	C593.500671,474.408966 602.661255,496.753479 591.024109,514.665588 
	C584.902161,524.088684 575.126465,526.173828 564.971130,526.993469 
	C559.534668,527.432312 554.033691,527.071472 547.971008,527.071472 
	C547.971008,534.428711 547.971008,541.482239 547.971008,548.799744 
	C540.453003,548.799744 533.525940,548.799744 525.640015,548.799744 
	C525.640015,529.913147 525.640015,511.010345 525.632690,491.638245 
M571.390076,491.375275 
	C564.601440,483.955292 556.062317,487.832001 548.136353,487.025665 
	C548.136353,494.874481 548.136353,501.975372 548.136353,509.635712 
	C552.653687,509.635712 556.951721,509.917023 561.200623,509.579681 
	C571.416077,508.768616 575.541687,501.799438 571.390076,491.375275 
z"/>
<path fill="#F7822E" opacity="1.000000" stroke="none" 
	d="
M904.021912,503.529999 
	C913.142639,503.531769 921.764832,503.531769 930.614258,503.531769 
	C930.614258,509.493744 930.614258,514.915100 930.614258,520.857727 
	C918.827087,520.857727 907.245361,520.857727 895.154175,520.857727 
	C895.154175,530.415894 895.154175,539.478027 895.154175,548.817749 
	C887.574158,548.817749 880.511902,548.817749 873.137329,548.817749 
	C873.137329,522.199341 873.137329,495.805389 873.137329,469.117371 
	C893.606689,469.117371 913.858704,469.117371 934.470581,469.117371 
	C934.470581,474.761200 934.470581,480.334351 934.470581,486.466492 
	C921.492615,486.466492 908.556458,486.466492 895.266602,486.466492 
	C895.266602,492.242798 895.266602,497.480255 895.266602,503.528229 
	C898.023499,503.528229 900.773438,503.528229 904.021912,503.529999 
z"/>
<path fill="#DADDDD" opacity="1.000000" stroke="none" 
	d="
M583.944885,572.054688 
	C576.169922,574.407471 574.485596,573.314514 568.529724,561.028076 
	C566.103699,570.393005 564.089661,578.577209 561.832153,586.693726 
	C560.842041,590.253235 559.355408,593.674500 558.094238,597.158569 
	C557.375610,597.085022 556.656982,597.011536 555.938293,596.937988 
	C553.622437,590.814270 551.477966,584.617126 548.901794,578.604858 
	C547.943481,576.368225 545.974731,574.564636 544.391479,571.960205 
	C544.507324,569.296265 544.698486,567.235657 544.889648,565.175049 
	C553.175293,562.551270 553.939209,569.572388 556.771606,575.753296 
	C560.088257,564.867310 562.953735,555.264832 565.991699,545.717346 
	C566.415222,544.386353 567.687561,543.325500 568.566895,542.139587 
	C569.611755,543.294006 571.042847,544.279968 571.632874,545.632751 
	C573.876343,550.776794 576.066772,555.966675 577.834595,561.286499 
	C578.804993,564.206665 580.347778,565.352478 583.633057,565.475830 
	C583.994995,567.981506 583.969971,570.018066 583.944885,572.054688 
z"/>
<path fill="#A2A6A6" opacity="1.000000" stroke="none" 
	d="
M285.007446,572.014587 
	C255.929337,572.014587 226.851212,572.014587 197.863556,572.014587 
	C196.532898,565.648987 196.829636,565.209045 202.616348,565.203918 
	C229.735794,565.179993 256.855286,565.184570 284.466400,565.639709 
	C284.974518,568.071838 284.990967,570.043213 285.007446,572.014587 
z"/>
<path fill="#A2A6A6" opacity="1.000000" stroke="none" 
	d="
M443.145569,565.402100 
	C466.084290,565.340820 489.022949,565.279480 512.459473,565.686401 
	C512.982361,568.123291 513.007385,570.091980 513.032471,572.060669 
	C490.342590,572.040100 467.652740,572.019531 444.487762,571.588623 
	C443.723633,569.252930 443.434601,567.327515 443.145569,565.402100 
z"/>
<path fill="#DADDDD" opacity="1.000000" stroke="none" 
	d="
M326.885529,565.182190 
	C341.659760,565.139099 356.434326,565.138916 371.208038,565.028442 
	C376.050354,564.992188 375.749146,568.080017 375.585022,572.161377 
	C366.216492,572.161377 357.028931,572.077637 347.844025,572.196594 
	C343.229797,572.256287 338.622650,572.747131 334.007660,572.914734 
	C332.208282,572.980103 330.396088,572.692871 328.288971,571.891479 
	C327.620636,569.205200 327.253082,567.193665 326.885529,565.182190 
z"/>
<path fill="#DADDDD" opacity="1.000000" stroke="none" 
	d="
M427.003662,572.078491 
	C422.766083,572.367310 418.519745,572.987793 414.292755,572.875977 
	C405.392365,572.640625 396.502136,572.021484 387.415192,571.549866 
	C386.979004,567.328430 387.747650,564.855896 392.770630,564.967590 
	C404.229523,565.222229 415.697845,565.050293 427.594788,565.495117 
	C427.686005,567.985291 427.344849,570.031860 427.003662,572.078491 
z"/>
<path fill="#BEC0C1" opacity="1.000000" stroke="none" 
	d="
M326.428406,565.150208 
	C327.253082,567.193665 327.620636,569.205200 327.994080,571.606812 
	C313.979584,572.037842 299.959137,572.078735 285.473083,572.067139 
	C284.990967,570.043213 284.974518,568.071838 284.925171,565.689209 
	C298.585266,565.224731 312.278290,565.171509 326.428406,565.150208 
z"/>
<path fill="#BEC0C1" opacity="1.000000" stroke="none" 
	d="
M513.496521,572.105408 
	C513.007385,570.091980 512.982361,568.123291 512.915283,565.748779 
	C523.240845,565.265076 533.608582,565.187256 544.432983,565.142273 
	C544.698486,567.235657 544.507324,569.296265 544.150269,571.716370 
	C533.976440,572.100647 523.968506,572.125427 513.496521,572.105408 
z"/>
<path fill="#BEC0C1" opacity="1.000000" stroke="none" 
	d="
M584.418579,572.059448 
	C583.969971,570.018066 583.994995,567.981506 584.040894,565.514648 
	C589.799622,565.084473 595.537537,565.084473 601.655212,565.084473 
	C601.655212,567.419434 601.655212,569.437866 601.655212,572.064148 
	C595.983643,572.064148 590.437988,572.064148 584.418579,572.059448 
z"/>
<path fill="#BEC0C1" opacity="1.000000" stroke="none" 
	d="
M427.470947,572.069458 
	C427.344849,570.031860 427.686005,567.985291 428.066895,565.552917 
	C432.808502,565.160706 437.510376,565.154297 442.678925,565.274963 
	C443.434601,567.327515 443.723633,569.252930 444.022095,571.555603 
	C438.667114,571.975342 433.302643,572.017822 427.470947,572.069458 
z"/>
<path fill="#FDFDFB" opacity="1.000000" stroke="none" 
	d="
M122.108421,492.114716 
	C131.257980,484.770264 141.147736,484.103790 149.489609,490.046753 
	C157.580872,495.811218 160.816376,507.053131 157.363968,517.406555 
	C154.311493,526.560730 145.976181,532.426819 136.371780,531.900146 
	C128.244446,531.454407 122.019150,527.583801 118.416512,520.276306 
	C114.407303,512.144043 114.570351,503.885071 119.085472,495.895813 
	C119.813080,494.608368 120.911415,493.530396 122.108421,492.114716 
z"/>
<path fill="#FDFDFB" opacity="1.000000" stroke="none" 
	d="
M820.664429,486.096497 
	C834.859680,489.220245 841.408936,498.187683 840.068481,512.114685 
	C838.997009,523.246704 830.799683,531.204102 819.750916,531.837524 
	C809.979492,532.397705 800.340210,524.713135 798.108215,514.583740 
	C794.674438,499.000214 804.660950,486.134338 820.664429,486.096497 
z"/>
<path fill="#FDFDFB" opacity="1.000000" stroke="none" 
	d="
M709.643555,492.669250 
	C718.517029,484.650085 729.011169,483.907196 737.630737,490.444519 
	C746.131531,496.891754 748.782532,510.120239 743.631958,520.390198 
	C739.116821,529.393066 729.267883,533.633606 719.125671,530.941589 
	C706.160583,527.500305 699.481018,511.198975 705.844727,498.341888 
	C706.794312,496.423279 708.196716,494.728790 709.643555,492.669250 
z"/>
<path fill="#FDFDFB" opacity="1.000000" stroke="none" 
	d="
M648.798828,489.010193 
	C653.470215,493.077911 653.772705,497.843811 651.839050,502.861389 
	C650.036072,507.539948 645.954590,508.921204 641.381042,509.045929 
	C636.759888,509.171997 632.132690,509.073761 627.151550,509.073761 
	C627.151550,501.751007 627.151550,494.696808 627.151550,486.174011 
	C634.315491,487.060699 641.389099,487.936188 648.798828,489.010193 
z"/>
<path fill="#FDFDFB" opacity="1.000000" stroke="none" 
	d="
M314.056671,516.893311 
	C311.258728,516.893433 308.936279,516.893433 305.803802,516.893433 
	C308.803680,508.901825 311.666412,501.275665 314.970337,492.474091 
	C318.501923,501.119659 321.639465,508.800690 324.945160,516.893250 
	C321.116089,516.893250 317.824127,516.893250 314.056671,516.893311 
z"/>
<path fill="#FDFDFB" opacity="1.000000" stroke="none" 
	d="
M571.606934,491.707001 
	C575.541687,501.799438 571.416077,508.768616 561.200623,509.579681 
	C556.951721,509.917023 552.653687,509.635712 548.136353,509.635712 
	C548.136353,501.975372 548.136353,494.874481 548.136353,487.025665 
	C556.062317,487.832001 564.601440,483.955292 571.606934,491.707001 
z"/>
</svg>