<?xml version="1.0" encoding="UTF-8"?>
<svg xmlns="http://www.w3.org/2000/svg" xmlns:xlink="http://www.w3.org/1999/xlink" version="1.1" id="Layer_1" x="0px" y="0px" width="100%" viewBox="0 0 500 500" enable-background="new 0 0 500 500" xml:space="preserve" style="background: transparent;">

<path fill="#020202" opacity="1.000000" stroke="none" d=" M194.991669,276.974579   C191.051941,282.598541 187.112198,288.222473 182.514374,294.785828   C187.297318,303.689972 192.855728,314.030731 198.407150,324.375275   C201.606491,330.336914 201.212280,330.993866 194.426651,331.001587   C187.430466,331.009521 180.431732,330.892090 173.439224,331.052338   C170.182144,331.126984 168.286896,329.949554 166.869415,326.949371   C163.108200,318.988556 159.112671,311.134186 155.014328,303.340546   C154.208694,301.808472 152.523346,300.739014 151.243698,299.456207   C150.747559,299.716949 150.251404,299.977692 149.755249,300.238434   C149.755249,308.504761 149.560165,316.777496 149.832886,325.034821   C149.981918,329.546814 148.600723,331.335541 143.868027,331.094849   C136.889877,330.739990 129.877640,330.888916 122.885277,331.052521   C119.501251,331.131714 118.079437,329.975311 118.088333,326.464264   C118.163078,296.980560 118.167244,267.496460 118.084000,238.012772   C118.073540,234.305130 119.552704,233.030243 123.153610,233.060532   C137.311539,233.179626 151.474152,232.936203 165.628876,233.182068   C179.607849,233.424896 191.183899,242.034943 195.233963,255.095367   C195.992996,257.543060 195.261047,260.426514 195.409729,263.098145   C195.537796,265.399597 195.940308,267.685791 196.629822,270.229218   C209.223770,239.528000 231.293427,227.151459 265.259918,234.105133   C260.061523,238.364670 255.899658,241.774887 250.993515,245.794968   C263.034607,246.267319 274.384491,246.712555 285.734344,247.157791   C285.802368,247.640091 285.870392,248.122375 285.938416,248.604675   C279.079498,255.770142 272.220551,262.935608 265.092377,270.382385   C259.929718,264.577545 253.692368,260.710785 246.173706,262.298981   C241.419373,263.303253 236.240509,265.705536 232.849701,269.084198   C224.448715,277.455048 226.371201,289.274689 237.035675,299.339539   C235.439545,301.070770 233.831558,302.814880 231.623383,305.209961   C237.771942,305.500275 243.045685,305.740784 248.318497,306.000641   C253.413330,306.251678 258.507172,306.522644 264.386932,306.825256   C257.889771,315.169098 252.003937,322.963104 245.777252,330.474548   C244.826477,331.621490 242.232208,332.025665 240.511032,331.821411   C214.924789,328.785187 195.261230,305.558533 196.311768,279.809174   C196.338898,279.144287 196.343460,278.478455 196.215912,277.044373   C196.401947,275.196136 196.730606,274.116608 197.253326,272.899841   C197.430405,272.402496 197.413452,272.042358 197.396515,271.682251   C197.241318,272.098297 197.086121,272.514313 196.581635,273.019470   C195.818771,274.397278 195.405212,275.685913 194.991669,276.974579  M149.444504,258.979614   C149.444504,263.750916 149.444504,268.522186 149.444504,273.709808   C153.167709,273.709808 156.481857,273.995483 159.725739,273.639923   C164.108200,273.159607 166.524963,270.273865 166.839203,265.966797   C167.128586,262.000427 163.627563,258.304169 159.439682,258.081696   C156.301544,257.915009 153.140930,258.171783 149.444504,258.979614  z"/>
<path fill="#020202" opacity="1.000000" stroke="none" d=" M107.147659,245.906921   C117.702904,261.510284 115.982605,279.582520 103.022629,292.074890   C97.581947,297.319305 91.022049,299.698547 83.579140,299.796631   C77.611649,299.875244 71.642296,299.812531 65.153053,299.812531   C65.153053,308.463562 64.945198,316.753143 65.236351,325.025116   C65.393730,329.496338 64.174850,331.392456 59.374813,331.094513   C53.232792,330.713257 47.049179,331.002869 40.883492,331.001709   C33.657154,331.000336 33.649578,330.999573 33.648628,323.984589   C33.645187,298.488617 33.647148,272.992676 33.647415,247.496704   C33.647449,244.163910 33.734097,240.828369 33.626369,237.499084   C33.522430,234.286804 34.968285,233.059082 38.132206,233.076920   C53.629047,233.164307 69.130020,232.948181 84.622452,233.229385   C94.072487,233.400940 101.361794,238.131363 107.147659,245.906921  M65.140968,272.289795   C64.789177,274.859711 65.404778,276.353210 68.506966,276.072021   C71.477600,275.802704 74.505745,276.176483 77.478401,275.918976   C81.965309,275.530212 84.551025,272.012390 84.608742,266.663940   C84.664871,261.462952 82.023727,257.435974 77.779678,257.079132   C73.708015,256.736877 69.585014,257.005219 65.140930,257.005219   C65.140930,262.084534 65.140930,266.708466 65.140968,272.289795  z"/>
<path fill="#020202" opacity="1.000000" stroke="none" d=" M399.019714,283.877472   C397.869110,306.200195 382.321747,325.016266 360.694397,330.712463   C338.919891,336.447418 315.662170,327.393219 303.397278,308.003754   C311.396606,301.529663 319.456726,295.006378 327.828156,288.231110   C330.913422,294.616852 335.123566,299.254944 341.871460,301.110962   C351.757935,303.830292 361.904510,299.405640 366.182892,290.375183   C370.331787,281.617981 367.478638,271.217957 359.399200,265.648010   C350.955322,259.826782 339.268524,260.811005 332.692566,268.583771   C330.119690,271.624939 327.630432,272.153809 324.159332,271.775818   C319.570007,271.276031 314.948944,271.067627 309.672241,270.685486   C310.768555,269.384003 311.476166,268.387329 312.336212,267.546692   C323.410980,256.721802 334.627472,246.037842 345.513824,235.027222   C348.221771,232.288345 350.852264,231.645569 354.360718,232.144806   C380.264954,235.830780 398.847473,257.116638 399.019714,283.877472  z"/>
<path fill="#020202" opacity="1.000000" stroke="none" d=" M137.086151,173.934357   C135.938614,192.084259 127.539391,204.857407 111.191704,211.953033   C108.298096,213.208984 107.809425,214.786926 107.816887,217.526703   C107.849022,229.332428 107.778267,229.332626 96.039322,229.332626   C95.872902,229.332626 95.706223,229.338867 95.540108,229.331711   C91.079643,229.139801 85.363075,230.512405 82.554871,228.259689   C80.293907,226.445969 81.798447,220.207886 81.111908,216.018082   C80.865753,214.515854 79.384590,212.628052 77.980179,211.992905   C60.613522,204.139069 51.127361,187.892685 52.820766,168.489929   C54.364532,150.801788 67.340828,136.061981 85.186066,131.726120   C111.776535,125.265411 136.447372,145.102371 137.086151,173.934357  M103.489685,187.179016   C111.016167,181.535583 113.235100,172.793503 109.192093,164.712830   C105.737823,157.808868 98.131096,154.431580 90.731895,156.516754   C81.405182,159.145126 76.567368,169.193115 79.947128,178.916382   C83.210640,188.305206 92.625702,191.875961 103.489685,187.179016  z"/>
<path fill="#030303" opacity="1.000000" stroke="none" d=" M403.626709,233.200760   C425.054932,233.121246 446.037323,233.197525 467.017853,233.032410   C471.267578,232.998962 473.164398,234.240738 472.908630,238.714264   C472.633423,243.527695 472.861786,248.369080 472.842529,253.198166   C472.818329,259.264923 472.259125,259.846985 466.357788,259.855347   C455.398987,259.870880 444.440125,259.859802 433.227783,259.859802   C433.227783,266.732452 433.227783,273.316711 433.227783,280.513275   C440.141724,280.513275 447.050598,280.509888 453.959473,280.514191   C461.223755,280.518707 461.224518,280.521942 461.227570,288.019379   C461.229156,291.849396 461.068787,295.687805 461.270416,299.507172   C461.484161,303.556396 459.964569,305.219086 455.770630,305.085205   C448.324158,304.847504 440.864594,305.018494 432.972290,305.018494   C432.972290,311.821350 432.654602,318.286835 433.071777,324.704529   C433.411957,329.937592 431.379517,331.369873 426.455963,331.094330   C419.981842,330.732025 413.458984,330.753418 406.982361,331.092682   C402.567627,331.323944 401.120972,329.749115 401.175751,325.424530   C401.352905,311.438843 401.241608,297.449554 401.241577,283.461639   C401.241577,268.641113 401.171844,253.819870 401.327545,239.000992   C401.347687,237.084839 402.534058,235.180954 403.626709,233.200760  z"/>
<path fill="#020202" opacity="1.000000" stroke="none" d=" M195.323975,213.510040   C186.850662,213.778778 178.634033,214.878860 170.705612,213.820282   C155.424316,211.779968 145.682922,200.709854 145.176407,185.188614   C144.638931,168.718185 145.033234,152.218369 144.922134,135.732071   C144.901184,132.624741 146.252182,131.714157 149.168152,131.788361   C154.993225,131.936584 160.830673,131.992050 166.651443,131.775253   C170.388443,131.636047 171.622055,133.124252 171.591400,136.749771   C171.471680,150.904495 171.532883,165.060913 171.561981,179.216644   C171.570801,183.510757 172.951645,187.085800 177.223724,188.899063   C181.287262,190.623810 185.477234,190.346268 188.282074,187.090027   C190.256622,184.797714 191.723221,181.287857 191.804123,178.278275   C192.170959,164.631958 192.144608,150.966568 191.863403,137.316193   C191.770889,132.825943 193.208435,131.487427 197.553925,131.749420   C203.195786,132.089569 208.875259,131.916992 214.535126,131.799805   C217.313080,131.742310 218.402954,132.835876 218.382568,135.608078   C218.261475,152.093506 218.540024,168.588486 218.070251,185.062744   C217.653046,199.693497 209.844040,209.082382 195.323975,213.510040  z"/>
<path fill="#010101" opacity="1.000000" stroke="none" d=" M393.672699,161.999817   C393.672974,153.340073 393.755157,145.179153 393.637024,137.021149   C393.582397,133.247879 394.931244,131.722946 398.921844,131.762939   C416.072205,131.934845 433.225739,131.902893 450.376953,131.781281   C453.766510,131.757263 455.017181,132.750061 455.078369,136.313217   C455.350494,152.165665 455.453064,152.163925 439.629242,152.163925   C432.990295,152.163925 426.351318,152.163910 419.382446,152.163910   C419.382446,155.983322 419.382446,159.538437 419.382446,163.628281   C426.186188,163.628281 432.976227,163.766129 439.756683,163.570770   C443.204559,163.471420 444.329010,164.610397 444.354492,168.143082   C444.456940,182.328156 444.574188,182.327301 430.394257,182.327286   C426.765869,182.327286 423.137451,182.327301 419.287079,182.327301   C419.287079,186.035782 419.287079,189.286789 419.287079,193.110260   C429.582916,193.110260 439.851746,193.353989 450.100342,193.004303   C455.000336,192.837112 456.679077,194.462372 456.204315,199.242447   C455.860382,202.705368 456.049011,206.232697 456.162842,209.725998   C456.256287,212.592941 455.262146,214.038239 452.168549,214.028046   C433.850983,213.967651 415.532898,213.946762 397.215607,214.038116   C393.224945,214.058014 393.679321,211.448959 393.678009,208.960342   C393.669830,193.473495 393.673187,177.986664 393.672699,161.999817  z"/>
<path fill="#020202" opacity="1.000000" stroke="none" d=" M271.700867,202.016235   C265.088287,202.016235 258.940735,202.016235 253.028610,202.016235   C252.589676,202.517288 252.286469,202.717209 252.195358,202.988403   C247.864807,215.879883 250.821365,213.816879 236.999390,213.993713   C232.523804,214.050980 228.046860,214.002701 222.776215,214.002701   C223.278427,211.981750 223.525879,210.451752 224.035522,209.014755   C232.637772,184.760071 241.325531,160.535492 249.835358,136.248535   C250.933792,133.113602 252.361359,131.610306 255.852631,131.765594   C261.503357,132.016937 267.178741,131.979553 272.833221,131.774765   C275.978210,131.660873 277.691742,132.767303 278.743439,135.764282   C286.330078,157.384033 294.001007,178.974426 301.731567,200.543182   C302.579102,202.907806 302.408020,204.484161 300.204010,205.987442   C297.600769,207.763000 295.247314,209.904266 292.781555,211.881973   C286.874634,216.619720 280.187775,214.656113 277.953613,207.535980   C277.043243,204.634598 276.865845,200.950180 271.700867,202.016235  M259.578949,179.757278   C259.989594,180.416306 260.365143,181.616470 260.816620,181.645752   C263.557343,181.823532 266.315369,181.734390 269.579254,181.734390   C267.854828,174.689240 266.289490,168.294067 264.375793,160.475769   C262.633392,167.518753 261.216278,173.246918 259.578949,179.757278  z"/>
<path fill="#050505" opacity="1.000000" stroke="none" d=" M312.479492,193.145294   C312.476379,172.624695 312.476379,152.523026 312.476379,131.844193   C320.872284,131.844193 328.499084,131.802551 336.125092,131.864029   C339.318817,131.889755 339.143097,134.289474 339.139801,136.513489   C339.128357,144.241425 339.135376,151.969391 340.136871,159.974228   C344.673828,152.350052 349.430725,144.845184 353.657776,137.052902   C355.873810,132.967804 358.692352,131.448410 363.243652,131.612579   C371.167969,131.898422 379.110046,131.692108 388.673645,131.692108   C386.023315,134.943192 384.616180,137.395538 382.570831,139.066788   C360.410553,157.173691 338.161530,175.172180 315.867798,193.114609   C315.109772,193.724655 313.627350,193.434662 312.479492,193.145294  z"/>
<path fill="#040404" opacity="1.000000" stroke="none" d=" M347.882874,194.882004   C353.217743,187.020432 358.678192,179.518921 364.504761,171.514420   C368.746643,178.881042 372.712738,185.725815 376.636383,192.594864   C380.489807,199.340973 384.300079,206.111710 388.895416,214.224152   C381.026062,212.917374 374.192902,216.423782 367.644470,212.284668   C367.140167,211.965912 366.325592,211.935059 365.700958,212.040665   C358.690186,213.225952 355.032867,209.510452 352.589844,203.518723   C351.407623,200.619217 349.556641,197.992371 347.882874,194.882004  z"/>
<path fill="#030303" opacity="1.000000" stroke="none" d=" M197.059280,273.037048   C196.730606,274.116608 196.401947,275.196136 196.043915,276.615051   C195.844147,276.962494 195.673767,276.970551 195.247528,276.976593   C195.405212,275.685913 195.818771,274.397278 196.612274,273.047882   C196.992218,272.987152 197.059280,273.037048 197.059280,273.037048  z"/>
<path fill="#F1F1F1" opacity="1.000000" stroke="none" d=" M149.717407,258.609802   C153.140930,258.171783 156.301544,257.915009 159.439682,258.081696   C163.627563,258.304169 167.128586,262.000427 166.839203,265.966797   C166.524963,270.273865 164.108200,273.159607 159.725739,273.639923   C156.481857,273.995483 153.167709,273.709808 149.444504,273.709808   C149.444504,268.522186 149.444504,263.750916 149.717407,258.609802  z"/>
<path fill="#030303" opacity="1.000000" stroke="none" d=" M196.961578,272.958740   C197.086121,272.514313 197.241318,272.098297 197.396515,271.682251   C197.413452,272.042358 197.430405,272.402496 197.253326,272.899841   C197.059280,273.037048 196.992218,272.987152 196.961578,272.958740  z"/>
<path fill="#FAFAFA" opacity="1.000000" stroke="none" d=" M65.140945,271.811096   C65.140930,266.708466 65.140930,262.084534 65.140930,257.005219   C69.585014,257.005219 73.708015,256.736877 77.779678,257.079132   C82.023727,257.435974 84.664871,261.462952 84.608742,266.663940   C84.551025,272.012390 81.965309,275.530212 77.478401,275.918976   C74.505745,276.176483 71.477600,275.802704 68.506966,276.072021   C65.404778,276.353210 64.789177,274.859711 65.140945,271.811096  z"/>
<path fill="#FBFBFB" opacity="1.000000" stroke="none" d=" M103.181122,187.395065   C92.625702,191.875961 83.210640,188.305206 79.947128,178.916382   C76.567368,169.193115 81.405182,159.145126 90.731895,156.516754   C98.131096,154.431580 105.737823,157.808868 109.192093,164.712830   C113.235100,172.793503 111.016167,181.535583 103.181122,187.395065  z"/>
<path fill="#EAEAEA" opacity="1.000000" stroke="none" d=" M259.689026,179.366180   C261.216278,173.246918 262.633392,167.518753 264.375793,160.475769   C266.289490,168.294067 267.854828,174.689240 269.579254,181.734390   C266.315369,181.734390 263.557343,181.823532 260.816620,181.645752   C260.365143,181.616470 259.989594,180.416306 259.689026,179.366180  z"/>
</svg>