<svg version="1.1" id="Layer_1" xmlns="http://www.w3.org/2000/svg" xmlns:xlink="http://www.w3.org/1999/xlink" x="0px" y="0px"
	 width="100%" viewBox="0 0 496 496" enable-background="new 0 0 496 496" xml:space="preserve">
<path fill="#000000" opacity="1.000000" stroke="none" 
	d="
M121.341141,327.267090 
	C117.168571,326.412323 117.713409,323.402527 117.708427,320.828094 
	C117.671356,301.661835 117.723404,282.495392 117.668968,263.329193 
	C117.663383,261.366577 118.603416,258.790100 115.446678,257.974152 
	C113.597359,259.137329 114.386894,260.983459 114.371841,262.501831 
	C114.170853,282.780121 100.670731,296.285767 80.494957,296.311035 
	C77.328339,296.315033 74.140015,296.547882 71.000519,296.256683 
	C66.962837,295.882202 65.524712,297.855682 65.568092,301.458008 
	C65.642273,307.617798 65.939034,313.777954 65.880661,319.935486 
	C65.814865,326.876740 65.235550,327.344299 58.492264,327.363281 
	C52.159081,327.381134 45.825573,327.394958 39.492615,327.351440 
	C33.788208,327.312256 32.911789,326.479309 32.889347,320.594391 
	C32.834686,306.261475 32.879410,291.928162 32.880642,277.595032 
	C32.881786,264.261871 32.861439,250.928711 32.883266,237.595612 
	C32.897007,229.204895 33.409695,228.696045 41.559658,228.686981 
	C51.392841,228.676025 61.226681,228.755371 71.059090,228.667313 
	C82.915863,228.561142 94.974297,227.501114 103.847527,237.442596 
	C106.120415,235.932663 107.079071,234.666687 105.119797,233.128250 
	C90.943573,221.996964 90.912422,207.091949 95.003693,191.812042 
	C99.341087,175.612961 109.248634,163.770523 126.432991,160.331039 
	C148.306793,155.952927 161.901245,168.931122 162.377899,188.679413 
	C162.733200,203.400070 158.343307,216.192810 148.059509,226.855804 
	C147.761429,227.164886 147.653732,227.657593 147.295563,228.399765 
	C153.980698,228.399765 160.372345,228.399765 167.019028,228.399765 
	C160.976685,209.557922 168.810684,192.079117 171.136780,174.192047 
	C171.746689,169.501999 172.015823,165.593079 167.501633,162.037979 
	C176.649170,162.037979 185.796692,162.037979 194.944229,162.037979 
	C187.127182,166.541733 188.187912,174.692520 186.671860,181.547516 
	C184.664200,190.625305 183.213318,199.829498 181.642883,208.999878 
	C179.639175,220.700241 184.575165,228.861954 193.986115,229.627289 
	C201.529434,230.240723 207.888931,226.441696 211.756516,219.097305 
	C215.407059,212.165070 215.838486,204.394928 217.481003,196.957870 
	C219.163757,189.338776 220.327057,181.604233 221.687088,173.914810 
	C222.846512,167.359573 222.827271,167.356171 218.279190,162.278397 
	C223.302582,161.058105 227.927917,161.769867 233.152985,161.655426 
	C222.164093,172.149353 224.959717,186.290421 221.401123,198.462585 
	C219.682907,204.339767 219.428848,210.607727 217.486038,216.477768 
	C213.024277,229.958664 204.912521,236.300323 190.827072,237.380249 
	C190.216354,237.427063 189.620209,237.664108 188.255737,238.000015 
	C194.740631,245.712250 198.257401,254.063538 197.510696,263.950012 
	C201.686996,253.069229 208.934860,244.874893 216.941208,236.638321 
	C221.227417,232.228867 228.040390,229.956619 230.021271,222.479385 
	C231.811676,215.721085 236.312210,209.682907 239.602371,203.319290 
	C246.105759,190.740829 252.805206,178.257156 258.984589,165.521286 
	C261.169403,161.018295 264.548767,161.616135 268.148346,161.664459 
	C272.045258,161.716766 271.374969,165.023254 271.737823,167.181168 
	C274.988586,186.512329 278.138855,205.861130 281.159637,225.229568 
	C281.765198,229.112289 283.201141,232.325668 287.310394,232.485229 
	C291.635101,232.653122 292.982269,229.101913 293.657257,225.435318 
	C296.907562,207.779922 300.124176,190.118240 303.428619,172.472992 
	C304.147064,168.636841 303.784058,165.250336 299.215668,161.973633 
	C309.261444,161.973633 317.910980,161.973633 327.543945,161.973633 
	C315.957123,168.976440 319.686707,181.049957 316.406006,190.617630 
	C316.179871,191.277130 316.574463,192.149490 316.671997,192.861465 
	C318.583130,193.218246 319.329468,191.917831 320.267914,191.072296 
	C328.067413,184.044724 335.791473,176.932419 343.650574,169.972504 
	C346.268127,167.654419 347.856018,165.512558 343.293030,162.011536 
	C350.081390,162.011536 355.499542,162.011536 361.735443,162.011536 
	C359.448486,165.082550 356.314819,165.167908 354.105011,166.727676 
	C344.938049,173.197998 337.447235,181.564651 328.946045,188.783569 
	C327.309723,190.173065 327.721375,191.589691 328.717590,193.185455 
	C335.247009,203.644272 341.822357,214.076584 348.174255,224.642868 
	C350.394440,228.336136 353.755310,227.807495 356.981995,227.698776 
	C360.089996,227.594070 359.667847,224.708817 360.040161,222.748657 
	C363.265930,205.766418 366.373810,188.761841 369.585083,171.776810 
	C370.309631,167.944489 368.918396,165.049637 365.429810,162.459534 
	C370.038940,160.812988 374.171387,161.866333 378.188080,161.605911 
	C389.504669,160.872223 400.826324,161.504684 412.146851,161.572403 
	C415.485535,161.592392 416.655945,162.793732 416.048737,166.087570 
	C415.159302,170.912537 414.465179,175.773483 413.528687,181.611115 
	C410.085938,178.580444 410.519226,175.200714 409.790894,172.401733 
	C408.281677,166.601654 406.109497,164.638641 400.073486,164.381943 
	C387.465149,163.845795 387.454315,163.843704 385.062958,176.215134 
	C383.870544,182.384003 382.725983,188.562119 381.529999,194.893677 
	C390.917877,197.572983 397.762512,195.035904 402.514313,186.298477 
	C402.723572,194.079346 401.040375,200.809296 399.658417,207.313095 
	C397.910156,207.804749 397.516998,206.932159 397.193054,206.244492 
	C393.954956,199.371094 390.685760,197.764633 383.128326,199.169785 
	C381.380829,199.494705 380.512207,200.266846 380.200439,201.985031 
	C378.627716,210.652420 376.969727,219.304398 375.411041,227.974258 
	C374.915375,230.731400 376.236725,231.994034 379.024292,231.949844 
	C383.855591,231.873276 388.688477,231.906143 393.520264,231.851486 
	C397.655823,231.804703 400.108063,229.162949 402.378967,226.137878 
	C404.936066,222.731552 406.580994,218.611282 410.325195,215.645966 
	C411.855408,217.561493 410.875702,219.232422 410.485474,220.875336 
	C408.624664,228.709839 408.626434,228.703400 416.911926,228.698578 
	C433.245026,228.689087 449.578156,228.673874 465.911255,228.690125 
	C472.814758,228.697006 473.271637,229.176773 473.306793,236.124008 
	C473.329590,240.623795 473.363586,245.124725 473.291901,249.623535 
	C473.203552,255.164825 472.080902,256.272125 466.402191,256.303467 
	C456.902618,256.355927 447.400482,256.432373 437.903748,256.259979 
	C434.412933,256.196625 433.340424,257.434845 433.278046,260.893280 
	C433.009033,275.811829 432.911469,275.716431 447.638733,275.845978 
	C461.738708,275.970001 462.147675,273.304962 462.030518,290.144135 
	C461.952545,301.352875 461.996185,301.353149 450.602264,301.348145 
	C446.268982,301.346252 441.929749,301.483673 437.604370,301.297882 
	C434.279907,301.155151 433.212433,302.567596 433.304352,305.742035 
	C433.463440,311.237213 433.248322,316.742554 433.369629,322.239685 
	C433.448761,325.826630 431.958923,327.418030 428.336334,327.368927 
	C421.337860,327.274048 414.336853,327.382904 407.337219,327.346619 
	C401.520386,327.316498 400.756500,326.584534 400.750244,320.648041 
	C400.723053,294.815430 400.748260,268.982758 400.751465,243.150101 
	C400.751648,241.650391 400.720642,240.150696 400.712830,238.650955 
	C400.702728,236.713394 399.964417,235.408661 397.818024,235.404938 
	C391.061554,235.393204 384.305115,235.400604 376.369873,235.400604 
	C397.254333,252.540268 405.595337,272.876740 395.250244,297.570038 
	C386.726532,317.915924 369.857147,328.589813 348.089142,328.824524 
	C324.228088,329.081787 307.625488,316.639221 297.946869,294.606842 
	C284.074341,321.870667 262.807220,334.682617 232.343857,326.311005 
	C209.209686,319.953491 196.855438,301.321655 195.499512,273.635895 
	C192.240570,279.298279 189.128769,284.550079 183.965668,288.192688 
	C181.812698,289.711639 183.454895,291.537445 184.264435,293.054169 
	C189.049820,302.019867 193.971878,310.913025 198.716919,319.899750 
	C202.111801,326.329315 201.474716,327.325287 194.310776,327.356750 
	C187.644363,327.386047 180.968536,327.136688 174.314377,327.420685 
	C169.975342,327.605835 167.603180,325.795593 165.843704,322.004028 
	C162.478775,314.752747 158.799026,307.646210 155.176651,300.516815 
	C154.338058,298.866272 153.978699,296.516571 150.302383,296.907532 
	C150.302383,302.412231 150.323547,307.981720 150.298355,313.551025 
	C150.226868,329.354095 151.650101,327.222473 136.302795,327.343903 
	C131.472015,327.382111 126.640427,327.319458 121.341141,327.267090 
M132.095947,162.917191 
	C124.208702,164.380173 119.893173,170.084259 116.550941,176.566483 
	C110.108292,189.061951 108.390762,202.583954 109.598022,216.365814 
	C110.101219,222.110260 110.789131,228.397980 116.720276,232.550903 
	C119.251801,227.772629 123.665375,228.497131 127.712624,228.776993 
	C131.889771,229.065857 134.697327,227.558701 136.741440,223.990356 
	C146.236298,207.415558 147.930191,189.727646 143.938522,171.388229 
	C142.587936,165.183136 139.465347,163.253265 132.095947,162.917191 
M239.237640,295.397308 
	C248.668091,299.128418 258.083038,297.136017 263.661163,290.228851 
	C270.456726,281.814178 268.989075,269.100922 260.478455,262.659119 
	C251.193588,255.631271 237.877213,257.742218 231.468048,267.257965 
	C225.051117,276.785248 228.091888,288.671661 239.237640,295.397308 
M336.458771,261.844788 
	C329.198975,267.245636 326.321228,274.336029 328.464325,283.205780 
	C330.867493,293.152008 341.900604,299.377167 352.271790,296.770599 
	C363.123657,294.043182 369.555664,284.074585 367.053986,273.860504 
	C363.794067,260.550690 350.168915,254.909363 336.458771,261.844788 
M294.324402,255.262009 
	C295.401703,257.404541 296.479004,259.547058 297.956268,262.485046 
	C304.226837,245.234909 316.324158,235.035416 332.881287,228.953293 
	C326.920319,218.761551 321.409821,209.339966 315.899323,199.918381 
	C313.227417,207.649826 311.721466,214.789597 310.504822,221.978348 
	C309.762787,226.362671 307.353241,231.252090 314.395081,234.144547 
	C313.940979,234.532928 313.486908,234.921295 313.032837,235.309677 
	C301.419617,235.309677 289.806366,235.309677 278.193115,235.309677 
	C284.172791,241.743149 290.118958,247.293549 294.324402,255.262009 
M250.530197,210.334656 
	C248.698792,210.329514 246.865417,210.268951 245.036545,210.334412 
	C243.097916,210.403809 240.720657,209.708237 239.557953,211.819016 
	C236.466293,217.431549 233.604019,223.170425 229.901382,230.301926 
	C242.556885,226.210541 253.794434,227.045547 264.809753,229.651978 
	C266.236786,226.684326 264.977081,224.416107 264.611603,222.241852 
	C262.338379,208.718277 265.497040,210.421265 250.530197,210.334656 
M260.513794,206.780914 
	C261.681488,206.540466 262.223877,205.795944 262.065582,204.643387 
	C260.858459,195.853531 259.628052,187.066864 258.404877,178.279221 
	C257.903351,178.152176 257.401825,178.025146 256.900330,177.898102 
	C252.102524,187.242661 247.304733,196.587219 242.026443,206.867630 
	C248.814789,206.867630 254.260468,206.867630 260.513794,206.780914 
M70.028519,271.664429 
	C71.518341,271.663971 73.008408,271.681274 74.497932,271.660034 
	C81.083687,271.566223 83.713959,269.058807 83.794571,262.815216 
	C83.879723,256.219727 81.193268,253.449966 74.594498,253.342529 
	C73.270493,253.320969 71.942940,253.272079 70.622383,253.340012 
	C68.432610,253.452637 64.954613,252.777557 65.682465,256.272949 
	C66.751732,261.407898 61.926041,267.998352 70.028519,271.664429 
M150.123993,264.259003 
	C149.949982,271.342102 155.315720,268.681702 158.657059,268.799835 
	C163.024399,268.954315 166.539032,265.747223 166.365524,262.081665 
	C166.170944,257.971161 163.685852,255.427490 159.667679,254.573486 
	C151.644043,252.868195 150.089310,254.165634 150.126297,262.352539 
	C150.127792,262.682983 150.123611,263.013428 150.123993,264.259003 
M113.985428,243.326096 
	C116.058525,243.890106 117.475601,243.662811 117.718948,241.005936 
	C117.978241,238.174988 116.371841,237.286865 114.096375,236.673431 
	C110.330803,235.658264 108.752785,237.691849 107.666916,240.640610 
	C109.314995,242.590210 111.452446,242.438171 113.985428,243.326096 
z"/>
</svg>